# xmcd
#
# Track frame offsets:
# 182
# 19942
# 35037
# 53110
# 68657
# 83840
# 106142
# 125855
# 142562
# 156922
# 172415
# 190225
# 203260
# 215040
# 230437
# 242662
# 259302
# 273825
#
# Disc length: 3868 seconds
#
#
# Revision: 0
# Processed by: cddbd v1.5.2PL0 Copyright (c) Steve Scherf et al.
# Submitted via: FreeRIP 2.60 
#
DISCID=020f1a12
DTITLE=Os Mateadores - Baile das Negra Touro
DYEAR=1900
DGENRE=Country
TTITLE0=Baile das Negra Touro
TTITLE1=Milonga Morena
TTITLE2=Baile da Ramada
TTITLE3=Rondando o Sul
TTITLE4=De Adaga e Cabo de Reio
TTITLE5=Perdido num Baile de Fronteira
TTITLE6=Briga de Bugia
TTITLE7=Lombeira
TTITLE8=No Tronco de Gervásio
TTITLE9=Meu Vale Quatro
TTITLE10=Sogaços
TTITLE11=Carreteiro de Ilusão
TTITLE12=De Rosto Colado
TTITLE13=Bolicheiro de Vila
TTITLE14=Chinoca Menina Flor
TTITLE15=No Rincão do Calça Botas
TTITLE16=Preservando os Documentos
TTITLE17=Velho Tatá
EXTD=
EXTT0=
EXTT1=
EXTT2=
EXTT3=
EXTT4=
EXTT5=
EXTT6=
EXTT7=
EXTT8=
EXTT9=
EXTT10=
EXTT11=
EXTT12=
EXTT13=
EXTT14=
EXTT15=
EXTT16=
EXTT17=
PLAYORDER=
